<svg width="280" height="185" viewBox="0 0 280 185" fill="none" xmlns="http://www.w3.org/2000/svg">
<g clip-path="url(#clip0_279_48)">
<path d="M222.732 35.225C214.72 26.6741 208.519 16.4665 198.943 9.48831C183.903 -1.49548 162.256 -2.56659 144.67 4.33371C127.083 11.2336 113.383 25.1423 104.353 40.8915C99.6027 49.1776 95.8718 58.2163 88.9115 64.9875C83.0277 70.7082 75.2943 74.3582 67.962 78.3336C56.1401 84.7254 44.7552 92.4489 37.1047 103.047C29.4549 113.644 26.0345 127.563 30.9248 139.506C34.2225 147.565 40.865 153.977 47.6698 159.783C55.6779 166.608 64.2849 173 74.2182 177.067C86.654 182.127 100.459 183.215 113.997 183.73C137.996 184.639 162.035 183.959 185.933 181.696C205.502 179.846 225.664 176.687 242.038 166.463C264.973 152.144 276.799 125.909 279.461 100.183C280.545 89.8938 280.27 79.2011 276.037 69.6543C265.913 46.8188 238.595 52.1599 222.731 35.225H222.732Z" fill="#EFF1F7"/>
<path d="M68.1155 77.2901C68.1155 77.2901 61.7744 76.1644 59.9982 80.6016C58.2219 85.0389 59.9982 100.363 59.9982 100.363L83.6561 117.272L68.1155 77.2901Z" fill="#3F3D56"/>
<path d="M97.867 145.052L88.4872 147.729C87.1242 148.115 85.6948 147.366 85.2891 146.054C84.8892 144.741 85.6662 143.362 87.0272 142.972L96.3944 140.292C97.7562 139.907 99.1856 140.654 99.5924 141.965C99.9966 143.277 99.2257 144.656 97.867 145.052V145.052Z" fill="#2BD0D0"/>
<path d="M97.4077 155.089C99.7284 155.089 101.61 153.208 101.61 150.887C101.61 148.566 99.7284 146.685 97.4077 146.685C95.0871 146.685 93.2058 148.566 93.2058 150.887C93.2058 153.208 95.0871 155.089 97.4077 155.089Z" fill="#25233A"/>
<path d="M96.8348 153.943C97.9952 153.943 98.9358 153.002 98.9358 151.842C98.9358 150.681 97.9952 149.741 96.8348 149.741C95.6745 149.741 94.7339 150.681 94.7339 151.842C94.7339 153.002 95.6745 153.943 96.8348 153.943Z" fill="#3F3D56"/>
<path d="M80.2183 150.887C82.5389 150.887 84.4202 149.005 84.4202 146.685C84.4202 144.364 82.5389 142.483 80.2183 142.483C77.8976 142.483 76.0164 144.364 76.0164 146.685C76.0164 149.005 77.8976 150.887 80.2183 150.887Z" fill="#25233A"/>
<path d="M81.7461 146.876C81.7461 147.433 81.5247 147.967 81.1307 148.361C80.7367 148.755 80.2023 148.977 79.6451 148.977C79.0879 148.977 78.5536 148.755 78.1595 148.361C77.7655 147.967 77.5442 147.433 77.5442 146.876C77.5442 146.319 77.7655 145.784 78.1595 145.39C78.5536 144.996 79.0879 144.775 79.6451 144.775C80.2023 144.775 80.7367 144.996 81.1307 145.39C81.5247 145.784 81.7461 146.319 81.7461 146.876V146.876Z" fill="url(#paint0_linear_279_48)"/>
<path d="M79.0723 156.617C81.3929 156.617 83.2742 154.735 83.2742 152.415C83.2742 150.094 81.3929 148.213 79.0723 148.213C76.7516 148.213 74.8704 150.094 74.8704 152.415C74.8704 154.735 76.7516 156.617 79.0723 156.617Z" fill="#25233A"/>
<path d="M82.51 152.606C82.51 153.163 82.2887 153.697 81.8947 154.091C81.5007 154.485 80.9663 154.707 80.4091 154.707C79.8519 154.707 79.3175 154.485 78.9235 154.091C78.5295 153.697 78.3081 153.163 78.3081 152.606C78.3081 152.049 78.5295 151.514 78.9235 151.12C79.3175 150.726 79.8519 150.505 80.4091 150.505C80.9663 150.505 81.5007 150.726 81.8947 151.12C82.2887 151.514 82.51 152.049 82.51 152.606Z" fill="#3F3D56"/>
<path d="M98.2043 149.311L78.8041 145.473C77.4389 145.199 76.5565 143.895 76.83 142.556C77.1096 141.219 78.4382 140.354 79.8038 140.621L99.204 144.451C100.569 144.725 101.452 146.029 101.178 147.369C100.902 148.708 99.5722 149.577 98.2043 149.311V149.311Z" fill="#2BD0D0"/>
<path d="M86.3301 118.417H91.6779V140.955C91.6779 142.432 90.4812 143.629 89.0052 143.629C88.2962 143.629 87.6164 143.347 87.1153 142.845C86.6141 142.344 86.3327 141.664 86.3328 140.955V118.417H86.3301Z" fill="#2BD0D0"/>
<path d="M88.3114 147.719L78.9385 150.403C77.5756 150.79 76.1446 150.04 75.7393 148.727C75.3394 147.413 76.1164 146.034 77.4766 145.643L86.8495 142.967C88.211 142.581 89.6396 143.329 90.0461 144.64C90.4429 145.952 89.6679 147.327 88.3114 147.719V147.719Z" fill="#2BD0D0"/>
<path d="M90.1499 147.548L88.9561 147.759C88.5937 147.821 88.2253 147.843 87.8579 147.824L88.3564 147.737C88.6866 147.682 89.0084 147.585 89.3141 147.449L90.1499 147.548Z" fill="url(#paint1_linear_279_48)"/>
<path d="M99.6997 142.383C99.7008 142.972 99.5045 143.546 99.142 144.011L91.2959 142.349C91.4944 142.065 91.6367 141.746 91.7153 141.409L96.549 139.91C96.8603 139.816 97.1876 139.787 97.5104 139.825C97.8333 139.863 98.1449 139.968 98.4258 140.131C98.9988 140.462 99.4224 141.019 99.6035 141.678C99.6661 141.907 99.6986 142.144 99.6997 142.383V142.383Z" fill="url(#paint2_linear_279_48)"/>
<path opacity="0.31" d="M86.032 141.758C85.9762 141.562 85.948 141.359 85.948 141.155V118.799H88.2182V142.892C88.1956 143.01 88.2029 143.131 88.24 143.247C87.8901 143.125 87.5234 143.059 87.1532 143.052C86.8896 143.036 86.6241 143.036 86.3602 143.052L86.5225 143.013C86.6226 142.998 86.1634 142.215 86.0324 141.758H86.032Z" fill="url(#paint3_linear_279_48)"/>
<path opacity="0.31" d="M100.192 148.9C99.8217 149.1 99.4049 149.205 98.9813 149.204C98.8108 149.204 98.6407 149.187 98.4733 149.155L89.914 147.472L89.2008 147.333C88.9561 147.516 88.68 147.653 88.386 147.736L87.962 147.857L79.1666 150.403C77.8243 150.788 76.4155 150.043 76.0164 148.737C76.7792 149.427 77.9374 149.491 78.7755 148.89C79.8493 148.166 84.1241 147.079 86.5456 146.5C87.69 146.234 88.5655 145.335 88.7795 144.208C88.7856 144.142 88.7955 144.076 88.81 144.011C89.2134 144.436 89.9548 144.913 91.2949 145.318C94.5953 146.307 99.9535 146.962 99.9535 146.962C99.9535 146.962 100.921 147.887 100.192 148.9V148.9Z" fill="url(#paint4_linear_279_48)"/>
<path d="M100.846 148.213C100.641 148.513 100.382 148.772 100.082 148.977C100.339 148.725 100.594 148.471 100.846 148.213V148.213Z" fill="url(#paint5_linear_279_48)"/>
<path d="M86.4446 141.55C86.5513 141.999 86.7754 142.412 87.094 142.746C87.0137 142.761 86.9316 142.781 86.8491 142.804L78.7238 145.157C77.4743 144.846 76.6511 143.68 76.797 142.427C76.9425 141.174 78.0121 140.219 79.3013 140.191C79.4744 140.191 79.6471 140.208 79.817 140.241L86.4446 141.55V141.55Z" fill="url(#paint6_linear_279_48)"/>
<path d="M98.9357 34.1528C98.9357 34.1528 98.8303 26.2055 92.4132 26.8911C85.9958 27.576 86.4882 24.9449 83.747 25.2337C81.0062 25.5228 77.8223 28.2079 78.7364 31.5243C79.6513 34.8408 76.3176 35.5822 74.1281 38.0984C71.9381 40.6146 74.6434 42.6731 78.3323 45.1332C82.0211 47.5932 78.1031 46.9564 80.29 50.8458C82.4772 54.7349 89.8806 49.7667 89.8806 49.7667L98.9357 34.1528Z" fill="#503164"/>
<path d="M46.8566 166.014L51.3374 166.166V130.357C51.3374 130.357 51.5628 121.097 60.2959 120.168C69.0286 119.239 148.229 107.766 148.229 107.766C148.229 107.766 151.368 107.434 153.176 113.458C154.984 119.482 156.744 143.172 156.744 143.172L181.054 146.448C181.054 146.448 181.696 104.601 172.917 102.292C164.138 99.9828 49.3338 111.75 49.3338 111.75C49.3338 111.75 40.8192 156.196 46.8566 166.014V166.014Z" fill="#2BD0D0"/>
<path opacity="0.197" d="M46.8566 166.014L51.3374 166.166V130.357C51.3374 130.357 51.5628 121.097 60.2959 120.168C69.0286 119.239 148.229 107.766 148.229 107.766C148.229 107.766 151.368 107.434 153.176 113.458C154.984 119.482 156.744 143.172 156.744 143.172L181.054 146.448C181.054 146.448 181.696 104.601 172.917 102.292C164.138 99.9828 49.3338 111.75 49.3338 111.75C49.3338 111.75 40.8192 156.196 46.8566 166.014V166.014Z" fill="url(#paint7_linear_279_48)"/>
<path d="M23.6833 116.043C23.6833 116.043 25.8775 103.912 41.31 100.733L150.248 88.2638C150.248 88.2638 160.942 87.8207 165.834 90.78C170.727 93.7389 177.71 96.192 180.573 109.583C183.436 122.974 184.12 145.85 184.12 145.85L181.412 146.27C181.412 146.27 177.459 104.847 173.271 102.224C169.083 99.6017 55.8455 115.691 55.8455 115.691C55.8455 115.691 47.9914 117.253 47.3073 128.882C46.6235 140.511 47.3073 165.784 47.3073 165.784L23.6833 156.256V116.043Z" fill="#2BD0D0"/>
<path opacity="0.19" d="M135.769 93.1467C130.13 92.4209 124.445 91.8953 118.763 92.1076C114.493 92.273 110.25 92.8586 106.016 93.4419L68.6663 98.6C68.0321 98.6878 67.3102 98.8303 66.9931 99.3808C66.385 100.432 67.8144 101.468 68.9726 101.868C81.3912 106.168 94.6589 110.523 107.442 107.457C113.287 106.055 118.715 103.145 124.643 102.134C130.571 101.123 136.656 102.054 142.571 101.1C148.132 100.204 153.426 97.6587 159.063 97.6339C160.791 97.6339 162.571 97.8543 164.21 97.3134C165.85 96.7729 167.3 95.1212 166.846 93.4744C161.554 93.2918 155.614 92.3258 150.423 93.3743C145.286 94.4103 140.914 93.1467 135.769 93.1467V93.1467Z" fill="url(#paint8_linear_279_48)"/>
<path d="M101.992 99.081L102.209 99.8885C102.209 99.8885 108.658 103.774 108.617 103.9C108.577 104.025 135.366 97.6963 135.366 97.6963L135.989 95.8799L101.992 99.081Z" fill="#2BD0D0"/>
<path d="M101.992 99.081L102.209 99.8885C102.209 99.8885 108.658 103.774 108.617 103.9C108.577 104.025 135.366 97.6963 135.366 97.6963L135.989 95.8799L101.992 99.081Z" fill="url(#paint9_linear_279_48)"/>
<path d="M102.374 99.0752L126.098 93.9702L135.989 95.9008L109.036 102.374L102.374 99.0752Z" fill="#2BD0D0"/>
<path d="M102.374 99.0752L126.098 93.9702L135.989 95.9008L109.036 102.374L102.374 99.0752Z" fill="url(#paint10_linear_279_48)"/>
<path d="M94.6696 103.323L100.192 103.518C100.192 103.518 101.595 103.605 101.957 102.48C102.32 101.356 99.7069 98.9815 99.4273 98.9368C99.1473 98.8917 91.8791 100.931 92.927 102.969L94.6696 103.323Z" fill="#2BD0D0"/>
<path d="M94.6696 103.323L100.192 103.518C100.192 103.518 101.595 103.605 101.957 102.48C102.32 101.356 99.7069 98.9815 99.4273 98.9368C99.1473 98.8917 91.8791 100.931 92.927 102.969L94.6696 103.323Z" fill="url(#paint11_linear_279_48)"/>
<path d="M30.1772 158.93L27.4811 167.21C19.6606 170.018 13.0113 167.21 13.0113 167.21L11.0776 158.526C11.0776 158.526 20.8318 161.796 30.1772 158.93Z" fill="#2BD0D0"/>
<path d="M30.1772 158.93L27.4811 167.21C19.6606 170.018 13.0113 167.21 13.0113 167.21L11.0776 158.526C11.0776 158.526 20.8318 161.796 30.1772 158.93Z" fill="url(#paint12_linear_279_48)"/>
<path d="M33.2333 151.269L32.3608 157.741L30.1506 158.89C20.7353 161.724 10.8925 158.493 10.8925 158.493L9.1953 157.239L8.40381 151.269H33.2333Z" fill="#2BD0D0"/>
<path d="M33.2333 151.269L32.3608 157.741L30.1506 158.89C20.7353 161.724 10.8925 158.493 10.8925 158.493L9.1953 157.239L8.40381 151.269H33.2333Z" fill="url(#paint13_linear_279_48)"/>
<path d="M20.8185 153.179C27.675 153.179 33.2333 152.152 33.2333 150.887C33.2333 149.621 27.675 148.595 20.8185 148.595C13.9621 148.595 8.40381 149.621 8.40381 150.887C8.40381 152.152 13.9621 153.179 20.8185 153.179Z" fill="#2BD0D0"/>
<path d="M20.8185 153.179C27.675 153.179 33.2333 152.152 33.2333 150.887C33.2333 149.621 27.675 148.595 20.8185 148.595C13.9621 148.595 8.40381 149.621 8.40381 150.887C8.40381 152.152 13.9621 153.179 20.8185 153.179Z" fill="url(#paint14_linear_279_48)"/>
<path d="M15.1424 101.24C13.9269 100.661 12.6201 100.224 11.5685 99.3792C9.44959 97.6603 8.91251 94.7006 8.24899 92.0457C7.58585 89.3905 6.30198 86.4713 3.68648 85.7096C2.70782 85.4281 1.55993 85.5397 0.815812 86.2406C0.0315828 86.979 -0.127708 88.1926 0.0869717 89.2637C0.301269 90.3348 0.823452 91.2944 1.22722 92.3097C2.16975 94.6695 2.45643 97.2403 2.0569 99.7498C1.72648 101.808 0.936904 103.895 1.44381 105.913C2.30405 109.337 6.58924 111.345 6.70765 114.873C6.78864 117.254 4.84162 119.457 5.28282 121.801C5.60828 123.534 7.19469 124.887 7.28064 126.649C7.37614 128.647 5.4998 130.337 5.59071 132.335C5.68124 134.333 7.66378 135.668 8.95797 137.239C10.0437 138.561 10.6884 140.19 10.8018 141.897C10.8698 142.963 10.7335 144.067 11.0792 145.078C11.3313 145.816 11.8355 146.443 12.2267 147.108C12.6583 147.826 12.9834 148.603 13.5029 149.269C14.153 150.096 15.0376 150.708 16.0411 151.025C17.0445 151.342 18.1202 151.349 19.1277 151.045C19.5288 148.39 19.1782 145.682 19.2893 142.998C19.5086 137.8 21.4632 132.561 20.2122 127.514C19.7534 125.664 18.8707 123.907 18.714 122.009C18.5754 120.313 19.0242 118.633 19.3371 116.96C19.9826 113.505 19.9727 109.934 19.7076 106.441C19.4987 103.669 17.5616 102.392 15.1428 101.24H15.1424Z" fill="#2BD0D0"/>
<path d="M22.8247 114.891C22.8044 117.206 23.3327 119.601 22.5909 121.799C22.0294 123.465 20.7948 124.83 20.1572 126.468C18.6865 130.249 20.6653 134.49 20.2615 138.528C20.0934 140.191 19.522 141.789 19.1614 143.422C18.7134 145.49 18.6036 147.616 18.8363 149.719C18.8126 150.102 18.9281 150.481 19.1615 150.786C19.3948 151.09 19.7304 151.301 20.1064 151.378C21.3512 151.852 22.6406 152.199 23.955 152.415C23.5106 149.966 23.9788 147.44 25.2709 145.314C27.2856 142.017 31.2002 139.795 31.929 136.009C32.4218 133.445 31.2739 130.843 31.3553 128.233C31.4139 126.496 32.0124 124.821 33.0674 123.44C34.0147 122.207 35.2978 121.254 36.1795 119.975C38.298 116.894 37.6375 112.776 37.0076 109.091C36.3773 105.406 36.0118 101.165 38.5012 98.3733C39.2889 97.4909 40.3149 96.8285 41.0289 95.8854C42.6191 93.7829 42.2176 90.544 40.368 88.665C38.5192 86.7856 35.5415 86.2661 33.0269 87.0927C31.9664 87.4044 31.03 88.0402 30.3491 88.911C29.079 90.7117 29.5871 93.1717 30.1257 95.312C30.5955 97.1712 30.9741 99.3165 30.3316 101.191C29.8514 102.586 28.6344 103.342 27.6003 104.313C26.1353 105.665 24.9576 107.299 24.1371 109.116C23.3167 110.933 22.8703 112.897 22.8247 114.891V114.891Z" fill="#2BD0D0"/>
<path d="M20.2692 135.425C19.9109 137.943 19.3937 140.482 19.2875 143.008V143.262C19.282 143.324 19.2677 143.386 19.2451 143.445C18.7975 145.514 18.6858 147.643 18.9143 149.748C18.928 150.089 19.014 150.423 19.1664 150.728C19.1542 150.835 19.1389 150.939 19.124 151.045C18.1162 151.349 17.0401 151.342 16.0363 151.025C15.0325 150.708 14.1477 150.096 13.4972 149.268C12.993 148.603 12.6519 147.826 12.2206 147.108C11.8169 146.44 11.3249 145.813 11.0727 145.077C10.727 144.061 10.863 142.962 10.795 141.896C10.6818 140.189 10.0368 138.56 8.95078 137.237C7.65621 135.676 5.67062 134.366 5.58238 132.335C5.49414 130.304 7.36857 128.647 7.27269 126.648C7.18713 124.887 5.59995 123.534 5.27488 121.8C4.83291 119.456 6.78833 117.253 6.70009 114.872C6.58167 111.343 2.29496 109.335 1.43433 105.91C0.930101 103.892 1.717 101.805 2.04743 99.7463C2.44894 97.2399 2.16571 94.6715 1.22767 92.3128C0.823907 91.2974 0.301724 90.3405 0.087045 89.2664C-0.127252 88.193 0.0316562 86.9817 0.816267 86.2403C1.57337 85.5397 2.70865 85.4281 3.6877 85.7097C6.30664 86.4714 7.58554 89.4012 8.25174 92.0565C8.91793 94.7121 9.45272 97.6694 11.572 99.3907C12.6194 100.241 13.9312 100.673 15.1475 101.252C17.5693 102.404 19.5071 103.681 19.7142 106.428C19.9663 109.921 19.9892 113.493 19.3436 116.948C19.0304 118.621 18.5865 120.302 18.7202 121.998C18.8539 123.694 19.5881 125.298 20.0675 126.943C20.1206 127.128 20.1733 127.316 20.2188 127.504C20.8548 130.117 20.6504 132.759 20.2692 135.425V135.425Z" fill="#30C59B"/>
<path d="M18.9919 150.505C18.8764 150.201 18.8116 149.88 18.8001 149.555C18.6358 147.507 18.7176 145.437 19.0434 143.425C19.0522 143.365 19.0633 143.306 19.074 143.247C19.0087 145.671 19.2169 148.115 18.9919 150.505V150.505Z" fill="url(#paint15_linear_279_48)"/>
<path d="M41.0232 95.8851C40.3085 96.8286 39.2806 97.4902 38.4917 98.373C35.9985 101.163 36.3648 105.405 36.9959 109.091C37.6265 112.775 38.2881 116.894 36.1662 119.975C35.2838 121.244 33.9988 122.207 33.0495 123.44C31.9929 124.82 31.3934 126.496 31.3344 128.233C31.2534 130.842 32.4032 133.444 31.9096 136.008C31.1797 139.795 27.2589 142.022 25.2412 145.314C23.9521 147.441 23.4868 149.967 23.9333 152.415C22.6202 152.199 21.3323 151.851 20.0889 151.377C19.7491 151.277 19.4409 151.091 19.1935 150.837C19.1584 150.796 19.1268 150.752 19.0992 150.705C18.9415 150.403 18.8505 150.071 18.8322 149.731C18.6033 147.628 18.7176 145.501 19.1706 143.434C19.1832 143.373 19.1985 143.312 19.2138 143.252C19.5751 141.682 20.1095 140.142 20.2723 138.539C20.3588 137.5 20.3383 136.455 20.2111 135.42C20.5954 132.757 20.8013 130.117 20.1527 127.525C20.1069 127.338 20.0534 127.15 19.9999 126.965C20.0484 126.802 20.1042 126.64 20.168 126.48C20.8067 124.842 22.0432 123.478 22.6051 121.811C23.3458 119.613 22.819 117.219 22.8392 114.903C22.8725 110.903 24.6816 107.042 27.587 104.312C28.6222 103.341 29.8412 102.586 30.3221 101.191C30.9657 99.3161 30.5765 97.1709 30.1158 95.3117C29.5741 93.1714 29.06 90.7114 30.34 88.9107C30.9761 88.018 31.9788 87.4373 33.0216 87.0924C35.5302 86.2654 38.525 86.7853 40.3746 88.6647C42.2242 90.5441 42.6161 93.7948 41.0232 95.8851V95.8851Z" fill="#30C59B"/>
<path d="M86.167 55.8266C86.167 55.8266 75.5411 57.4692 70.626 69.1875C65.7109 80.9059 68.2668 95.4239 68.3528 96.7013C68.4387 97.9786 83.414 103.52 87.6949 103.52C91.9763 103.52 92.8679 99.2304 92.8679 99.2304L85.3033 96.0091L108.288 93.3546H112.415L110.142 97.1868C110.142 97.1868 114.627 97.6566 117.626 97.764C120.623 97.8713 122.659 91.9424 122.995 88.9938C123.331 86.046 109.753 60.1695 107.724 58.6369C105.696 57.104 100.193 53.3589 86.167 55.8266V55.8266Z" fill="#2BD0D0"/>
<path d="M98.7035 33.9116C98.7035 33.9116 100.626 34.9926 100.453 38.4897C100.28 41.9869 99.1962 47.2496 98.1026 48.6125C97.0086 49.9762 93.1825 50.5102 93.1825 50.5102C93.1825 50.5102 95.2697 55.4673 96.8229 56.7466C98.3761 58.0259 95.2621 62.7389 92.2333 61.1926C89.2049 59.646 85.6936 55.7622 85.6936 55.7622C85.6936 55.7622 88.2193 51.0848 87.3652 48.6228C86.5114 46.1609 83.2504 37.5206 85.6936 35.1607C88.1368 32.8 93.4045 29.4174 98.7035 33.9116V33.9116Z" fill="url(#paint16_linear_279_48)"/>
<path opacity="0.25" d="M81.8738 72.5786L80.2183 93.2272L85.2751 95.8801L89.3861 95.1627L84.2567 88.8583L81.8738 72.5786ZM108.486 71.4326C108.486 71.4326 115.327 87.5057 112.294 93.2061L109.958 92.763L108.486 71.4326Z" fill="white"/>
<path d="M89.9675 98.5711C89.9675 98.5711 87.3829 100.777 88.5365 102.493C89.6901 104.209 91.0672 104.16 92.2155 103.393C93.3637 102.625 95.6194 100.804 98.3067 101.64C100.994 102.476 101.647 103.008 101.647 103.008C101.647 103.008 103.062 102.123 102.695 101.235C102.328 100.348 99.5169 97.4729 98.7025 97.1004C97.8881 96.728 94.507 97.8724 94.507 97.8724C94.507 97.8724 92.023 97.2009 89.9675 98.5715V98.5711Z" fill="url(#paint17_linear_279_48)"/>
<path d="M112.76 93.8163C112.76 93.8163 110.321 94.1063 109.705 95.7099C109.089 97.3135 108.867 97.5091 108.867 97.5091C108.867 97.5091 110.245 97.7727 110.818 97.0262C111.391 96.2798 111.986 96.5934 111.986 96.5934L111.816 97.5511C111.816 97.5511 115.558 98.1153 117.249 97.5091C118.939 96.9021 119.665 96.1901 119.665 96.1901L120.327 94.5704C120.327 94.5704 118.73 93.413 117.526 93.2334C116.322 93.0539 112.76 93.8163 112.76 93.8163V93.8163Z" fill="url(#paint18_linear_279_48)"/>
<path d="M125.634 110.778C125.634 110.778 134.013 117.152 133.268 125.774C132.524 134.397 131.43 147.199 131.43 147.199C131.43 147.199 128.05 148.621 125.812 147.199C123.572 145.777 122.217 126.323 121.107 124.466C119.998 122.608 113.324 114.232 106.194 113.511L125.634 110.778Z" fill="#25233A"/>
<path d="M83.656 116.912C83.656 116.912 87.6455 120.692 94.7575 121.878C101.87 123.065 105.185 124.056 107.358 130.131C109.532 136.207 111.617 149.283 112.299 150.745C112.982 152.206 115.883 151.461 115.883 151.461C115.883 151.461 117.524 149.591 117.524 139.193C117.524 124.698 118.538 121.727 114.883 118.086C111.229 114.444 107.904 113.452 107.904 113.452L83.656 116.912Z" fill="#3F3D56"/>
<path d="M112.305 151.269L113.001 156.692H114.302C114.302 156.692 122.686 157.145 122.949 156.95C123.212 156.754 122.545 152.655 119.369 152.771C116.193 152.887 115.984 151.998 115.984 151.998L112.305 151.269ZM126.439 147.508L127.783 152.797L142.466 150.806C142.466 150.806 142.982 147.332 138.331 147.677C137.104 147.766 136.189 148.619 134.713 148.626C133.238 148.634 131.824 148.037 131.08 147.067L126.439 147.508Z" fill="#25233A"/>
<path d="M176.405 81.1109L122.069 84.0346C120.755 84.1038 119.634 83.0911 119.563 81.771V42.9636C119.564 41.3971 120.811 40.1186 122.37 40.0853L176.483 38.9634C176.827 38.9565 177.169 39.0176 177.49 39.1433C177.81 39.2689 178.102 39.4567 178.35 39.6957C178.851 40.1798 179.14 40.8428 179.154 41.5396V78.1997C179.152 79.7491 177.945 81.0272 176.405 81.1109V81.1109Z" fill="#2BD0D0"/>
<path d="M179.461 81.1108L125.123 84.0349C123.809 84.1026 122.689 83.0884 122.619 81.7682V42.9636C122.618 41.3966 123.864 40.117 125.424 40.0853L179.544 38.9633C180.987 38.9366 182.179 40.0875 182.21 41.5372V78.1996C182.208 79.7494 181.001 81.0275 179.461 81.1108V81.1108Z" fill="#2BD0D0"/>
<path d="M179.461 81.1108L125.123 84.0349C123.809 84.1026 122.689 83.0884 122.619 81.7682V42.9636C122.618 41.3966 123.864 40.117 125.424 40.0853L179.544 38.9633C180.987 38.9366 182.179 40.0875 182.21 41.5372V78.1996C182.208 79.7494 181.001 81.0275 179.461 81.1108V81.1108Z" fill="url(#paint19_linear_279_48)"/>
<path d="M163.406 95.9329L149.541 97.4081C149.541 97.4081 145.319 96.5563 145.548 95.9329C145.776 95.3091 150.191 94.7086 150.191 94.7086V69.572C150.153 69.5162 149.572 68.7759 147.98 68.3042C147.671 68.2129 147.358 68.1399 147.04 68.0864C146.768 68.0466 146.502 67.9662 146.253 67.8481C145.306 67.3591 146.353 66.5073 147.822 66.4691C148.052 66.461 148.283 66.4745 148.511 66.5096H159.173C159.173 66.5096 163.21 67.6452 163.406 73.3132C163.601 78.9816 163.406 95.9329 163.406 95.9329V95.9329Z" fill="#3A3054"/>
<path d="M152.033 95.986L149.482 97.4081C149.482 97.4081 145.323 96.5563 145.548 95.9325C145.773 95.3091 150.13 94.7082 150.13 94.7082V69.5697C150.077 69.5117 149.439 68.8447 147.951 68.3023C147.397 68.1047 146.829 67.952 146.25 67.8458C145.318 67.3568 146.348 66.505 147.796 66.4668C149.029 66.6368 151.457 68.0055 151.615 68.7866C151.773 69.5674 152.033 95.986 152.033 95.986V95.986Z" fill="#51466B"/>
<path d="M100.464 148.595C100.127 148.977 99.9711 149.118 100.17 148.804C100.273 148.743 100.371 148.673 100.464 148.595Z" fill="url(#paint20_linear_279_48)"/>
</g>
<defs>
<linearGradient id="paint0_linear_279_48" x1="77.5442" y1="146.876" x2="81.7461" y2="146.876" gradientUnits="userSpaceOnUse">
<stop stop-color="#183866"/>
<stop offset="1" stop-color="#1A7FC1"/>
</linearGradient>
<linearGradient id="paint1_linear_279_48" x1="87.8549" y1="147.64" x2="90.1499" y2="147.64" gradientUnits="userSpaceOnUse">
<stop/>
<stop offset="0.99" stop-opacity="0"/>
</linearGradient>
<linearGradient id="paint2_linear_279_48" x1="106.093" y1="116.026" x2="115.861" y2="120.595" gradientUnits="userSpaceOnUse">
<stop/>
<stop offset="0.99" stop-opacity="0"/>
</linearGradient>
<linearGradient id="paint3_linear_279_48" x1="87.2986" y1="55.7253" x2="85.9573" y2="55.36" gradientUnits="userSpaceOnUse">
<stop/>
<stop offset="0.99" stop-opacity="0"/>
</linearGradient>
<linearGradient id="paint4_linear_279_48" x1="114.179" y1="139.902" x2="81.2411" y2="129.142" gradientUnits="userSpaceOnUse">
<stop/>
<stop offset="0.99" stop-opacity="0"/>
</linearGradient>
<linearGradient id="paint5_linear_279_48" x1="118.12" y1="21.508" x2="116.604" y2="21.0294" gradientUnits="userSpaceOnUse">
<stop/>
<stop offset="0.99" stop-opacity="0"/>
</linearGradient>
<linearGradient id="paint6_linear_279_48" x1="101.677" y1="119.033" x2="91.0783" y2="121.851" gradientUnits="userSpaceOnUse">
<stop/>
<stop offset="0.99" stop-opacity="0"/>
</linearGradient>
<linearGradient id="paint7_linear_279_48" x1="190.406" y1="116.432" x2="-3.80618" y2="107.083" gradientUnits="userSpaceOnUse">
<stop/>
<stop offset="1" stop-opacity="0"/>
</linearGradient>
<linearGradient id="paint8_linear_279_48" x1="81.0288" y1="85.2704" x2="181.11" y2="85.2704" gradientUnits="userSpaceOnUse">
<stop stop-color="#183866"/>
<stop offset="1" stop-color="#1A7FC1"/>
</linearGradient>
<linearGradient id="paint9_linear_279_48" x1="115.722" y1="99.0497" x2="116.929" y2="103.738" gradientUnits="userSpaceOnUse">
<stop/>
<stop offset="0.99" stop-opacity="0"/>
</linearGradient>
<linearGradient id="paint10_linear_279_48" x1="98.1614" y1="97.7455" x2="130.759" y2="108.176" gradientUnits="userSpaceOnUse">
<stop/>
<stop offset="0.99" stop-opacity="0"/>
</linearGradient>
<linearGradient id="paint11_linear_279_48" x1="97.7469" y1="100.874" x2="97.5067" y2="102.718" gradientUnits="userSpaceOnUse">
<stop/>
<stop offset="0.99" stop-opacity="0"/>
</linearGradient>
<linearGradient id="paint12_linear_279_48" x1="47.5437" y1="125.429" x2="30.607" y2="124.775" gradientUnits="userSpaceOnUse">
<stop/>
<stop offset="0.99" stop-opacity="0"/>
</linearGradient>
<linearGradient id="paint13_linear_279_48" x1="50.2608" y1="140.176" x2="36.1106" y2="139.693" gradientUnits="userSpaceOnUse">
<stop/>
<stop offset="0.99" stop-opacity="0"/>
</linearGradient>
<linearGradient id="paint14_linear_279_48" x1="22.5539" y1="150.594" x2="22.0375" y2="153.147" gradientUnits="userSpaceOnUse">
<stop/>
<stop offset="0.99" stop-opacity="0"/>
</linearGradient>
<linearGradient id="paint15_linear_279_48" x1="18.9395" y1="36.2971" x2="17.7523" y2="43.6071" gradientUnits="userSpaceOnUse">
<stop/>
<stop offset="0.99" stop-opacity="0"/>
</linearGradient>
<linearGradient id="paint16_linear_279_48" x1="84.7957" y1="46.6008" x2="100.463" y2="46.6008" gradientUnits="userSpaceOnUse">
<stop stop-color="#ECC4D7"/>
<stop offset="0.42" stop-color="#EFD4D1"/>
<stop offset="1" stop-color="#F2EAC9"/>
</linearGradient>
<linearGradient id="paint17_linear_279_48" x1="102.615" y1="85.7984" x2="117.131" y2="85.7984" gradientUnits="userSpaceOnUse">
<stop stop-color="#ECC4D7"/>
<stop offset="0.42" stop-color="#EFD4D1"/>
<stop offset="1" stop-color="#F2EAC9"/>
</linearGradient>
<linearGradient id="paint18_linear_279_48" x1="123.113" y1="89.3298" x2="134.572" y2="89.3298" gradientUnits="userSpaceOnUse">
<stop stop-color="#ECC4D7"/>
<stop offset="0.42" stop-color="#EFD4D1"/>
<stop offset="1" stop-color="#F2EAC9"/>
</linearGradient>
<linearGradient id="paint19_linear_279_48" x1="199.426" y1="84.2004" x2="145.153" y2="120.295" gradientUnits="userSpaceOnUse">
<stop stop-color="#362958" stop-opacity="0.501"/>
<stop offset="1" stop-color="#34313D" stop-opacity="0"/>
</linearGradient>
<linearGradient id="paint20_linear_279_48" x1="115.321" y1="17.9107" x2="114.876" y2="17.746" gradientUnits="userSpaceOnUse">
<stop/>
<stop offset="0.99" stop-opacity="0"/>
</linearGradient>
<clipPath id="clip0_279_48">
<rect width="280" height="184.12" fill="white"/>
</clipPath>
</defs>
</svg>
